<svg xmlns="http://www.w3.org/2000/svg" version="1.1" xmlns:xlink="http://www.w3.org/1999/xlink" xmlns:svgjs="http://svgjs.dev/svgjs" width="1500" height="1500" viewBox="0 0 1500 1500"><rect width="1500" height="1500" fill="#ffffff"></rect><g transform="matrix(0.6666666666666666,0,0,0.6666666666666666,250.00007343750008,187.66666666666674)"><svg viewBox="0 0 320 360" data-background-color="#ffffff" preserveAspectRatio="xMidYMid meet" height="1687" width="1500" xmlns="http://www.w3.org/2000/svg" xmlns:xlink="http://www.w3.org/1999/xlink"><g id="tight-bounds" transform="matrix(1,0,0,1,0.000023499999997511622,0)"><svg viewBox="0 0 320 360" height="360" width="320"><g><svg></svg></g><g><svg viewBox="0 0 320 360" height="360" width="320"><g><path transform="translate(-74.99272,-51.79039) scale(4.65793,4.65793)" d="M20.6 59.9l0.8 1-0.4-1.3c-0.1-0.6-0.8 0.1-0.4 0.3M21.5 59.3c0.3 0.5 0.6 1 0.6 1.5 0 0.7 0.6 1 1.1 1.2-0.7-0.8-1.1-3-1.7-2.7M59.9 16.9c1.7 0 3.3-0.2 5.1 0.2 4.4 1.1 8.1 3.3 10.6 6.4l7 11.2c0.3 2.8 0.9 5.9 0.8 9.3 0.7 0 0.6-1 1.4-1.2-0.8 2-1.2 4.5-1.4 7.4-0.5-1.6 0-4 0.1-5.3-0.7 1.1-1.1 0.3-1.1-0.2 0.1-0.8-0.3-0.7-0.6-1-1.1-1-1.8-2.1-2.6-3.8 0.5-1.3 0.6-3.2-1-4.2-0.5-0.3-1.1-0.8-1.4-1.6-0.4-1.1-1.1-2.4-0.9-4.1 0.1-0.5-1.5 1.1-2.4 0.4-3.9-2.7-7.8-5.8-12.5-8.4-2.5 0-4.3-0.9-5.2-2-0.8-1-0.2-2.3 1-2.4 0.7 0 1.5-0.2 2.1 0.2 0.1-0.4 0.5-0.9 1-0.9M50 14.6l0.2 0.1c1 0.2 1.5 1.6 2.6 1.1 0 0.7 0.1 1.4-0.1 1.9-0.3 0.8-1.2 0.8-1.9 0.8-6.7-0.4-10.6 2.4-14.7 4.8-1.1 0.7-2.3 1.2-3.2 2.1-4.3 4-9 7.7-10.1 15.1l-0.9 8.2c-0.1 0.9-1.1 1.8-0.9 2.9l0.7 4.9c-0.7-0.7-1.1 0.2-0.9 0.6 0.1 0.3 0.5 1.3 1.1 0.4 0.8 1.5 1.6 4.4 2.7 5.7 3.4 4 7.8 7.6 11.4 11.2 0.9-0.2 1.6-0.2 1.8-0.8 0.3 0.6-0.3 1.2-0.8 1.3 1.6 1 3.4 1.9 5.8 2.1 3.1 0.2 6 0.7 8.7 1.4 1.4-0.4 2.8-0.6 4.3-0.7 0.5 0 0.8-0.8 1.4-1l0.1-1c0.6 0.9 0.5-0.3 0.1-0.9 0.7 0.6 0.9 1.1 1.2 1.5 0-0.3 0.8-1.4 0.8-0.1l0.2-1.3c0.3-0.2 0.4 1.1 0.7 0.2 0.3-0.9 0.9-0.2 1.5-0.5-0.2 0.4-0.1 1.2 0.6 0.7l0.8-0.7c0.5 1.2 1.3 0.7 1.7 0.5 4.4-2.8 8.8-6.1 13-9.4l-0.1 1.3 0.5-1.6c0.5 0.5 0.9 0.1 1.1-0.2 0.6-1 1.4-2 2.7-2.9-1.6 4.3-3.5 7.7-5.9 10.5l-1 1.2c0 0.7-0.2 1.6-1 1.7-0.4 0.1-1.2-0.2-1.8 0.4-0.3 0.4 0.7 1.2-0.1 0.6-0.7-0.5-1.4 0-2.2 0.2-0.6 0.2 0.4 0.8 0.6 1.2 0.2 0.4 0.4 0.8 0.3 1.3l-1.1-1.2c-1.3 0.7-2.1 2-3.2 3-0.5 0.4-0.3 1.1-0.3 1.7-0.7 0-1.5-0.2-1.9 0.2-0.3 0.4-0.2 1-0.2 1.6-1-0.1-1.1-1.6-2-1.3-0.9 0.2-1.9 0.3-2.7 0.8 0.6 1.2-1 0.5-0.8 0.7-1.5-0.9-2.8-1.6-4.4-1-3.4-1.1-7.6-0.6-10.7-0.2 0-0.5 0.1-1-0.1-1.1-0.2 0.5-0.8 0.3-0.7 0.3-1.9-1.3-3.8-2.1-5.8-3.2-1.8 0.2-3.5-0.7-4-1.2-1.4-1.3-3-0.6-4.3-0.9-2.8-0.7-3.8-3.6-4.1-5.6-0.2-1-1-1.4-1.3-1.3-1.3-4.2-3.3-8-4.9-11.9-0.4-1-0.3-2-0.3-3.1 0.5 0.2 1 0.1 0.9-0.6-0.5-3.3-1.7-5.8-3-8.2 0.7-3.4 0.8-7.4 2.4-10.4 1.4-2.7 4-4.1 5.8-6.4 0.6-0.8 0.6-1.9 1.2-2.6 2-2 4-4.1 6.2-5.9 1-0.8 2.2 0 3.7-0.3 0.5-1.8 2.5-3.4 4.4-2.9 0.8 0.2 2.4-1.9 2.9-2.1 0.8-0.3 0.4 0.8 0.4 1.5 1.9-1.5 4.5-2.3 6.9-3.2" fill="#4a596d" fill-rule="nonzero" stroke="none" stroke-width="1" stroke-linecap="butt" stroke-linejoin="miter" stroke-miterlimit="10" stroke-dasharray="" stroke-dashoffset="0" font-family="none" font-weight="none" font-size="none" text-anchor="none" style="mix-blend-mode: normal" data-fill-palette-color="tertiary"></path></g><g transform="matrix(1,0,0,1,64,117.46483679859297)"><svg viewBox="0 0 192 125.07032640281406" height="125.07032640281406" width="192"><g><svg viewBox="0 0 192 125.07032640281406" height="125.07032640281406" width="192"><g><svg viewBox="0 0 192 125.07032640281406" height="125.07032640281406" width="192"><g transform="matrix(1,0,0,1,0,74.32623569750892)"><svg viewBox="0 0 192 50.74409070530514" height="50.74409070530514" width="192"><g id="textblocktransform"><svg viewBox="0 0 192 50.74409070530514" height="50.74409070530514" width="192" id="textblock"><g><svg viewBox="0 0 192 28.767730755579684" height="28.767730755579684" width="192"><g transform="matrix(1,0,0,1,0,0)"><svg width="192" viewBox="1.9383335333419998 -36.3 308.981666466658 46.3" height="28.767730755579684" data-palette-color="#4a596d"><path d="M13.85 0.3L13.85 0.3Q10.7 0.3 8.43-0.98 6.15-2.25 4.67-4.48 3.2-6.7 2.53-9.53 1.85-12.35 1.95-15.4L1.95-15.4Q2.15-20.85 3.95-24.8 5.75-28.75 8.5-31.3 11.25-33.85 14.43-35.08 17.6-36.3 20.55-36.3L20.55-36.3Q23.05-36.3 25.08-35.48 27.1-34.65 28.3-33.08 29.5-31.5 29.5-29.25L29.5-29.25Q29.5-27.5 28.48-25.88 27.45-24.25 25.38-23.23 23.3-22.2 20.05-22.2L20.05-22.2Q20.6-23.8 20.85-25 21.1-26.2 21.1-27.05L21.1-27.05Q21.1-28.8 20.3-29.43 19.5-30.05 18.3-30.05L18.3-30.05Q16.85-30.05 15.55-29 14.25-27.95 13.23-26.18 12.2-24.4 11.6-22.25 11-20.1 10.9-17.9L10.9-17.9Q10.7-12.35 12.5-9.5 14.3-6.65 17.15-6.65L17.15-6.65Q19.35-6.65 22.03-8.45 24.7-10.25 27.3-13.9L27.3-13.9 27.95-13.6Q27.3-9.1 25.1-6 22.9-2.9 19.93-1.3 16.95 0.3 13.85 0.3ZM42.35 0.35L42.35 0.35Q38.6 0.35 36.15-1.15 33.7-2.65 32.52-5.13 31.35-7.6 31.35-10.4L31.35-10.4Q31.35-13.05 32.32-15.7 33.3-18.35 35.17-20.53 37.05-22.7 39.75-24.03 42.45-25.35 45.95-25.35L45.95-25.35Q49.7-25.35 52.12-23.83 54.55-22.3 55.72-19.8 56.9-17.3 56.9-14.45L56.9-14.45Q56.9-11.85 55.95-9.22 55-6.6 53.12-4.42 51.25-2.25 48.55-0.95 45.85 0.35 42.35 0.35ZM43.7-3.9L43.7-3.9Q45.05-3.9 45.95-5.3 46.85-6.7 47.3-8.88 47.75-11.05 47.75-13.3L47.75-13.3Q47.75-15.3 47.37-17.07 47-18.85 46.25-19.98 45.5-21.1 44.3-21.1L44.3-21.1Q43-21.1 42.07-19.7 41.15-18.3 40.7-16.15 40.25-14 40.25-11.7L40.25-11.7Q40.25-9.7 40.62-7.93 41-6.15 41.75-5.03 42.5-3.9 43.7-3.9ZM66.95 0.2L66.95 0.2Q65.14 0.2 63.57-1.05 62-2.3 61.02-4.7 60.05-7.1 60.05-10.5L60.05-10.5Q60.05-14 61.05-16.75 62.05-19.5 63.67-21.43 65.3-23.35 67.22-24.35 69.15-25.35 71-25.35L71-25.35Q73.05-25.35 74.65-24.08 76.25-22.8 76.84-20.1L76.84-20.1Q77.3-22.6 77.62-24.88 77.95-27.15 77.95-28.9L77.95-28.9Q77.95-31.2 77.34-32.25L77.34-32.25 77.34-32.55Q78.5-33.85 79.87-34.48 81.25-35.1 82.5-35.1L82.5-35.1Q84.15-35.1 85.3-34.08 86.45-33.05 86.45-31.15L86.45-31.15Q86.45-30.1 86.09-28.05 85.75-26 85.25-23.38 84.75-20.75 84.22-17.98 83.7-15.2 83.34-12.68 83-10.15 83-8.3L83-8.3Q83-6.75 83.32-5.83 83.65-4.9 84.4-4.9L84.4-4.9Q84.95-4.9 85.52-5.28 86.09-5.65 86.3-6.15L86.3-6.15 86.65-5.9Q86.65-4.25 85.59-2.88 84.55-1.5 82.95-0.65 81.34 0.2 79.65 0.2L79.65 0.2Q77.8 0.2 76.72-0.83 75.65-1.85 75.2-3.45 74.75-5.05 74.7-6.75L74.7-6.75Q73.15-3.15 71.07-1.48 69 0.2 66.95 0.2ZM70.3-6.15L70.3-6.15Q71.59-6.15 73.2-8.5 74.8-10.85 76-15.35L76-15.35 76.3-16.9Q75.5-18.75 74.57-19.53 73.65-20.3 72.8-20.3L72.8-20.3Q71.55-20.3 70.45-18.93 69.34-17.55 68.67-15.43 68-13.3 68-10.95L68-10.95Q68-8.7 68.65-7.43 69.3-6.15 70.3-6.15ZM98.29-26.75L98.29-26.75Q96.29-26.75 95.02-27.98 93.74-29.2 93.74-31.05L93.74-31.05Q93.74-33.05 95.24-34.5 96.74-35.95 98.89-35.95L98.89-35.95Q100.89-35.95 102.17-34.7 103.44-33.45 103.44-31.6L103.44-31.6Q103.44-29.6 101.94-28.18 100.44-26.75 98.29-26.75ZM94.79 0.2L94.79 0.2Q92.84 0.2 91.29-1.18 89.74-2.55 89.74-5.6L89.74-5.6Q89.74-7.35 90.22-8.88 90.69-10.4 91.32-11.85 91.94-13.3 92.42-14.68 92.89-16.05 92.89-17.4L92.89-17.4Q92.89-18.6 92.49-19.13 92.09-19.65 91.54-19.65L91.54-19.65Q90.69-19.65 89.89-18.55L89.89-18.55 89.54-18.75Q89.74-20.75 90.82-22.18 91.89-23.6 93.47-24.4 95.04-25.2 96.59-25.2L96.59-25.2Q98.49-25.2 99.89-23.98 101.29-22.75 101.29-20L101.29-20Q101.29-18.35 100.82-16.53 100.34-14.7 99.72-12.9 99.09-11.1 98.62-9.55 98.14-8 98.14-6.9L98.14-6.9Q98.14-5.95 98.52-5.55 98.89-5.15 99.34-5.15L99.34-5.15Q99.79-5.15 100.22-5.43 100.64-5.7 100.84-6.05L100.84-6.05 101.19-5.95Q101.19-4.1 100.22-2.73 99.24-1.35 97.79-0.58 96.34 0.2 94.79 0.2ZM110.99 0.15L110.99 0.15Q109.14 0.15 107.64-1.33 106.14-2.8 106.14-5.45L106.14-5.45Q106.14-6.75 106.49-8.4 106.84-10.05 107.27-11.75 107.69-13.45 108.04-14.95 108.39-16.45 108.39-17.4L108.39-17.4Q108.39-18.4 107.99-18.98 107.59-19.55 106.94-19.55L106.94-19.55Q106.09-19.55 105.09-18.55L105.09-18.55 104.79-18.75Q104.74-19.55 105.14-20.65 105.54-21.75 106.37-22.78 107.19-23.8 108.49-24.5 109.79-25.2 111.59-25.2L111.59-25.2Q114.24-25.2 115.52-23.68 116.79-22.15 116.79-19.95L116.79-19.95Q116.79-19.15 116.64-18.4L116.64-18.4Q117.69-19.95 119.24-21.53 120.79-23.1 122.67-24.15 124.54-25.2 126.54-25.2L126.54-25.2Q128.89-25.2 129.74-23.7 130.59-22.2 130.59-19.95L130.59-19.95Q130.59-17.85 130.14-15.45 129.69-13.05 129.24-10.83 128.79-8.6 128.79-7.1L128.79-7.1Q128.79-5.1 129.94-5.1L129.94-5.1Q130.54-5.1 130.99-5.48 131.44-5.85 131.59-6.2L131.59-6.2 131.94-6.05Q131.94-4.2 130.92-2.8 129.89-1.4 128.34-0.63 126.79 0.15 125.19 0.15L125.19 0.15Q123.24 0.15 121.74-1.2 120.24-2.55 120.24-5.6L120.24-5.6Q120.24-7.4 120.72-9.5 121.19-11.6 121.64-13.55 122.09-15.5 122.09-16.75L122.09-16.75Q122.09-17.5 121.82-17.93 121.54-18.35 120.84-18.35L120.84-18.35Q119.69-18.35 118.32-17.3 116.94-16.25 115.97-14.5 114.99-12.75 114.99-10.65L114.99-10.65Q114.99-9.3 115.32-8.05 115.64-6.8 115.64-5.35L115.64-5.35Q115.64-2.65 114.24-1.25 112.84 0.15 110.99 0.15ZM146.74 10L146.74 10Q144.29 10 142.69 8.55 141.09 7.1 141.09 4.45L141.09 4.45Q141.09 1.6 143.09-2.25L143.09-2.25Q142.74-2.15 142.39-2.1 142.04-2.05 141.69-2.05L141.69-2.05Q138.79-2.05 136.81-4.58 134.84-7.1 134.84-11.6L134.84-11.6Q134.84-15.65 136.41-18.75 137.99-21.85 140.44-23.6 142.89-25.35 145.54-25.35L145.54-25.35Q147.39-25.35 148.89-24.43 150.39-23.5 151.34-21.45L151.34-21.45Q151.39-21.95 151.39-22.35 151.39-22.75 151.39-23.1L151.39-23.1Q151.39-23.95 152.69-24.5 153.99-25.05 155.59-25.05L155.59-25.05Q157.04-25.05 158.29-24.5 159.54-23.95 159.94-22.65L159.94-22.65 160.04-22.35Q159.59-21.95 159.26-19.75 158.94-17.55 158.49-13.65L158.49-13.65Q158.19-11.2 157.74-8.08 157.29-4.95 156.51-1.78 155.74 1.4 154.49 4.08 153.24 6.75 151.34 8.38 149.44 10 146.74 10ZM145.09-7.8L145.09-7.8Q146.54-7.8 148.31-10.18 150.09-12.55 151.14-17L151.14-17Q150.24-18.95 149.31-19.78 148.39-20.6 147.44-20.6L147.44-20.6Q146.19-20.6 145.09-19.35 143.99-18.1 143.31-16.18 142.64-14.25 142.64-12.2L142.64-12.2Q142.64-10.1 143.34-8.95 144.04-7.8 145.09-7.8ZM144.49 4.25L144.49 4.25Q146.19 4.25 147.96 0.93 149.74-2.4 150.44-8.45L150.44-8.45Q146.64-3.3 145.16-0.53 143.69 2.25 143.69 3.4L143.69 3.4Q143.69 4.25 144.49 4.25ZM180.08-26.75L180.08-26.75Q178.08-26.75 176.81-27.98 175.53-29.2 175.53-31.05L175.53-31.05Q175.53-33.05 177.03-34.5 178.53-35.95 180.68-35.95L180.68-35.95Q182.68-35.95 183.96-34.7 185.23-33.45 185.23-31.6L185.23-31.6Q185.23-29.6 183.73-28.18 182.23-26.75 180.08-26.75ZM170.33 10L170.33 10Q168.13 10 166.58 9.18 165.03 8.35 164.26 7.1 163.48 5.85 163.48 4.5L163.48 4.5Q163.48 2.5 165.21 0.88 166.93-0.75 170.53-0.75L170.53-0.75Q169.83 0.5 169.53 1.5 169.23 2.5 169.23 3.35L169.23 3.35Q169.23 4.6 169.73 5.25 170.23 5.9 170.88 5.9L170.88 5.9Q171.98 5.9 172.23 4.03 172.48 2.15 172.48-0.95L172.48-0.95 172.48-3.6Q172.48-8.9 172.83-14.03 173.18-19.15 174.73-23.9L174.73-23.9Q176.38-25 178.73-25L178.73-25Q180.18-25 181.48-24.48 182.78-23.95 183.28-22.85L183.28-22.85Q181.88-18.6 181.11-14.2 180.33-9.8 179.58-4.5L179.58-4.5Q179.18-1.75 178.66 0.85 178.13 3.45 177.21 5.53 176.28 7.6 174.66 8.8 173.03 10 170.33 10ZM192.03 0.2L192.03 0.2Q189.78 0.2 188.26-1.65 186.73-3.5 186.73-6.6L186.73-6.6Q186.73-8.3 187.13-10.25 187.53-12.2 187.93-13.95L187.93-13.95Q188.28-15.25 188.51-16.38 188.73-17.5 188.73-18.2L188.73-18.2Q188.73-19.1 188.36-19.5 187.98-19.9 187.48-19.9L187.48-19.9Q186.98-19.9 186.48-19.58 185.98-19.25 185.68-18.6L185.68-18.6 185.28-18.75Q185.28-20.8 186.28-22.25 187.28-23.7 188.83-24.45 190.38-25.2 191.98-25.2L191.98-25.2Q193.28-25.2 194.48-24.68 195.68-24.15 196.46-23.05 197.23-21.95 197.23-20.3L197.23-20.3Q197.23-19.3 196.96-17.9 196.68-16.5 196.33-15L196.33-15Q195.98-13.45 195.66-11.88 195.33-10.3 195.33-9.1L195.33-9.1Q195.33-8 195.68-7.3 196.03-6.6 196.73-6.6L196.73-6.6Q198.03-6.6 199.66-9 201.28-11.4 202.28-15.45L202.28-15.45Q202.48-16.25 202.63-17.15 202.78-18.05 202.78-19L202.78-19Q202.78-19.75 202.68-20.53 202.58-21.3 202.38-22.1L202.38-22.1 202.38-22.45Q203.18-23.8 204.46-24.5 205.73-25.2 207.03-25.2L207.03-25.2Q208.78-25.2 210.18-24 211.58-22.8 211.58-20.5L211.58-20.5Q211.58-19.15 211.08-17.38 210.58-15.6 209.98-13.7L209.98-13.7Q209.38-11.85 208.88-10.05 208.38-8.25 208.38-6.85L208.38-6.85Q208.38-4.8 209.83-4.8L209.83-4.8Q210.23-4.8 210.81-5.03 211.38-5.25 211.88-5.95L211.88-5.95 212.23-5.85Q212.23-4.05 211.26-2.68 210.28-1.3 208.78-0.55 207.28 0.2 205.68 0.2L205.68 0.2Q203.63 0.2 202.01-1.3 200.38-2.8 200.38-6.2L200.38-6.2 200.38-6.3Q198.33-2.8 196.13-1.3 193.93 0.2 192.03 0.2ZM220.68 0.15L220.68 0.15Q218.83 0.15 217.33-1.33 215.83-2.8 215.83-5.45L215.83-5.45Q215.83-6.75 216.18-8.4 216.53-10.05 216.95-11.75 217.38-13.45 217.73-14.95 218.08-16.45 218.08-17.4L218.08-17.4Q218.08-18.4 217.68-18.98 217.28-19.55 216.63-19.55L216.63-19.55Q215.78-19.55 214.78-18.55L214.78-18.55 214.48-18.75Q214.43-19.55 214.83-20.65 215.23-21.75 216.05-22.78 216.88-23.8 218.18-24.5 219.48-25.2 221.28-25.2L221.28-25.2Q223.93-25.2 225.2-23.68 226.48-22.15 226.48-19.95L226.48-19.95Q226.48-19.15 226.33-18.4L226.33-18.4Q227.38-19.95 228.93-21.53 230.48-23.1 232.35-24.15 234.23-25.2 236.23-25.2L236.23-25.2Q238.58-25.2 239.43-23.7 240.28-22.2 240.28-19.95L240.28-19.95Q240.28-17.85 239.83-15.45 239.38-13.05 238.93-10.83 238.48-8.6 238.48-7.1L238.48-7.1Q238.48-5.1 239.63-5.1L239.63-5.1Q240.23-5.1 240.68-5.48 241.13-5.85 241.28-6.2L241.28-6.2 241.63-6.05Q241.63-4.2 240.6-2.8 239.58-1.4 238.03-0.63 236.48 0.15 234.88 0.15L234.88 0.15Q232.93 0.15 231.43-1.2 229.93-2.55 229.93-5.6L229.93-5.6Q229.93-7.4 230.4-9.5 230.88-11.6 231.33-13.55 231.78-15.5 231.78-16.75L231.78-16.75Q231.78-17.5 231.5-17.93 231.23-18.35 230.53-18.35L230.53-18.35Q229.38-18.35 228-17.3 226.63-16.25 225.65-14.5 224.68-12.75 224.68-10.65L224.68-10.65Q224.68-9.3 225-8.05 225.33-6.8 225.33-5.35L225.33-5.35Q225.33-2.65 223.93-1.25 222.53 0.15 220.68 0.15ZM253.68-26.75L253.68-26.75Q251.68-26.75 250.4-27.98 249.13-29.2 249.13-31.05L249.13-31.05Q249.13-33.05 250.63-34.5 252.13-35.95 254.28-35.95L254.28-35.95Q256.28-35.95 257.55-34.7 258.83-33.45 258.83-31.6L258.83-31.6Q258.83-29.6 257.33-28.18 255.83-26.75 253.68-26.75ZM250.18 0.2L250.18 0.2Q248.23 0.2 246.68-1.18 245.13-2.55 245.13-5.6L245.13-5.6Q245.13-7.35 245.6-8.88 246.08-10.4 246.7-11.85 247.33-13.3 247.8-14.68 248.28-16.05 248.28-17.4L248.28-17.4Q248.28-18.6 247.88-19.13 247.48-19.65 246.93-19.65L246.93-19.65Q246.08-19.65 245.28-18.55L245.28-18.55 244.93-18.75Q245.13-20.75 246.2-22.18 247.28-23.6 248.85-24.4 250.43-25.2 251.98-25.2L251.98-25.2Q253.88-25.2 255.28-23.98 256.68-22.75 256.68-20L256.68-20Q256.68-18.35 256.2-16.53 255.73-14.7 255.1-12.9 254.48-11.1 254-9.55 253.53-8 253.53-6.9L253.53-6.9Q253.53-5.95 253.9-5.55 254.28-5.15 254.73-5.15L254.73-5.15Q255.18-5.15 255.6-5.43 256.03-5.7 256.23-6.05L256.23-6.05 256.58-5.95Q256.58-4.1 255.6-2.73 254.63-1.35 253.18-0.58 251.73 0.2 250.18 0.2ZM271.42 0.35L271.42 0.35Q267.67 0.35 265.22-1.15 262.77-2.65 261.6-5.13 260.42-7.6 260.42-10.4L260.42-10.4Q260.42-13.05 261.4-15.7 262.37-18.35 264.25-20.53 266.12-22.7 268.82-24.03 271.52-25.35 275.02-25.35L275.02-25.35Q278.77-25.35 281.2-23.83 283.62-22.3 284.8-19.8 285.97-17.3 285.97-14.45L285.97-14.45Q285.97-11.85 285.02-9.22 284.07-6.6 282.2-4.42 280.32-2.25 277.62-0.95 274.92 0.35 271.42 0.35ZM272.77-3.9L272.77-3.9Q274.12-3.9 275.02-5.3 275.92-6.7 276.37-8.88 276.82-11.05 276.82-13.3L276.82-13.3Q276.82-15.3 276.45-17.07 276.07-18.85 275.32-19.98 274.57-21.1 273.37-21.1L273.37-21.1Q272.07-21.1 271.15-19.7 270.22-18.3 269.77-16.15 269.32-14 269.32-11.7L269.32-11.7Q269.32-9.7 269.7-7.93 270.07-6.15 270.82-5.03 271.57-3.9 272.77-3.9ZM294.72 0.2L294.72 0.2Q292.92 0.2 291.52-1.28 290.12-2.75 290.12-5.45L290.12-5.45Q290.12-6.75 290.42-8.4 290.72-10.05 291.12-11.78 291.52-13.5 291.82-15.03 292.12-16.55 292.12-17.55L292.12-17.55Q292.12-18.6 291.75-19.23 291.37-19.85 290.77-19.85L290.77-19.85Q289.82-19.85 288.82-18.55L288.82-18.55 288.52-18.75Q288.47-19.55 288.87-20.65 289.27-21.75 290.12-22.78 290.97-23.8 292.3-24.5 293.62-25.2 295.42-25.2L295.42-25.2Q298.07-25.2 299.27-23.68 300.47-22.15 300.47-20L300.47-20Q300.47-19.65 300.45-19.28 300.42-18.9 300.37-18.55L300.37-18.55Q302.17-21.8 304.15-23.53 306.12-25.25 307.82-25.25L307.82-25.25Q309.42-25.25 310.17-24 310.92-22.75 310.92-21L310.92-21Q310.92-19.4 310.3-17.75 309.67-16.1 308.45-15.03 307.22-13.95 305.47-14L305.47-14 305.27-14.1Q305.22-15.4 304.42-16.15 303.62-16.9 302.62-16.9L302.62-16.9Q301.27-16.9 300.1-15.55 298.92-14.2 298.92-11.65L298.92-11.65Q298.92-10.1 299.27-8.3 299.62-6.5 299.62-5.25L299.62-5.25Q299.62-3.75 298.92-2.5 298.22-1.25 297.12-0.53 296.02 0.2 294.72 0.2Z" opacity="1" transform="matrix(1,0,0,1,0,0)" fill="#4a596d" class="wordmark-text-0" data-fill-palette-color="primary" id="text-0"></path></svg></g></svg></g><g transform="matrix(1,0,0,1,0,32.965633098356896)"><svg viewBox="0 0 192 17.778457606948244" height="17.778457606948244" width="192"><g transform="matrix(1,0,0,1,0,0)"><svg width="192" viewBox="3.75 -37.6 531.34 49.2" height="17.778457606948244" data-palette-color="#aab7c0"><path d="M11.9 0.6L11.9 0.6Q9.6 0.6 7.75-0.28 5.9-1.15 4.83-3.1 3.75-5.05 3.75-8.15L3.75-8.15 3.75-37 8.25-37 8.25-8.6Q8.25-5.9 9.38-4.6 10.5-3.3 12.5-3.3L12.5-3.3Q13.45-3.3 14.38-3.53 15.3-3.75 15.95-4.05L15.95-4.05 17.05-0.4Q16.15 0 14.83 0.3 13.5 0.6 11.9 0.6ZM38.34 0.6L38.34 0.6Q32.74 0.6 29.46-2.98 26.19-6.55 26.19-13L26.19-13Q26.19-16.9 27.66-19.98 29.14-23.05 31.79-24.83 34.44-26.6 37.94-26.6L37.94-26.6Q41.69-26.6 44.16-24.98 46.64-23.35 47.89-20.6 49.14-17.85 49.14-14.55L49.14-14.55Q49.14-12.8 48.99-11.15L48.99-11.15 30.79-11.15Q31.24-7.5 33.34-5.45 35.44-3.4 38.89-3.4L38.89-3.4Q41.14-3.4 42.94-3.88 44.74-4.35 46.39-5.1L46.39-5.1 47.44-1.25Q45.64-0.45 43.39 0.08 41.14 0.6 38.34 0.6ZM30.74-14.8L30.74-14.8 44.99-14.8Q44.99-18.6 43.09-20.65 41.19-22.7 37.84-22.7L37.84-22.7Q34.94-22.7 33.04-20.68 31.14-18.65 30.74-14.8ZM72.47 0.6L72.47 0.6Q69.22 0.6 66.57-1.05 63.92-2.7 62.35-5.73 60.77-8.75 60.77-12.85L60.77-12.85Q60.77-16.75 62.35-19.85 63.92-22.95 66.7-24.78 69.47-26.6 73.07-26.6L73.07-26.6Q75.32-26.6 77.15-25.83 78.97-25.05 80.32-23.9L80.32-23.9 80.32-26 84.42-26 84.42-6.3Q84.42-4.4 85.35-3.83 86.27-3.25 87.37-3.25L87.37-3.25 86.42 0.25Q81.62 0.25 80.62-3.65L80.62-3.65Q79.47-2.05 77.5-0.73 75.52 0.6 72.47 0.6ZM73.47-3.4L73.47-3.4Q75.37-3.4 77.07-4.33 78.77-5.25 79.92-6.65L79.92-6.65 79.92-20.6Q78.57-21.55 76.95-22.13 75.32-22.7 73.52-22.7L73.52-22.7Q71.12-22.7 69.3-21.48 67.47-20.25 66.42-18.07 65.37-15.9 65.37-13L65.37-13Q65.37-10.2 66.42-8.03 67.47-5.85 69.32-4.63 71.17-3.4 73.47-3.4ZM105.26 0L100.76 0 100.76-26 105.11-26 105.11-20.35Q105.76-22 106.86-23.43 107.96-24.85 109.61-25.73 111.26-26.6 113.46-26.6L113.46-26.6Q114.21-26.6 114.96-26.53 115.71-26.45 116.21-26.3L116.21-26.3 114.86-21.65Q113.91-22.05 112.61-22.05L112.61-22.05Q110.76-22.05 109.09-21 107.41-19.95 106.34-17.75 105.26-15.55 105.26-12.15L105.26-12.15 105.26 0ZM132.6 0L128.1 0 128.1-26 132.45-26 132.45-21.65Q133.85-23.75 136.02-25.18 138.2-26.6 141.2-26.6L141.2-26.6Q145.6-26.6 147.77-23.95 149.95-21.3 149.95-16.95L149.95-16.95 149.95 0 145.45 0 145.45-16.45Q145.45-19.25 144.12-20.95 142.8-22.65 140.45-22.65L140.45-22.65Q138.15-22.65 136.1-21.03 134.05-19.4 132.6-17.2L132.6-17.2 132.6 0ZM169.58 0L165.08 0 165.08-26 169.58-26 169.58 0ZM167.33-30.45L167.33-30.45Q166.03-30.45 165.11-31.4 164.18-32.35 164.18-33.6L164.18-33.6Q164.18-35.05 165.03-35.9 165.88-36.75 167.33-36.75L167.33-36.75Q168.63-36.75 169.56-35.83 170.48-34.9 170.48-33.6L170.48-33.6Q170.48-32.2 169.63-31.33 168.78-30.45 167.33-30.45ZM189.47 0L184.97 0 184.97-26 189.32-26 189.32-21.65Q190.72-23.75 192.9-25.18 195.07-26.6 198.07-26.6L198.07-26.6Q202.47-26.6 204.65-23.95 206.82-21.3 206.82-16.95L206.82-16.95 206.82 0 202.32 0 202.32-16.45Q202.32-19.25 201-20.95 199.67-22.65 197.32-22.65L197.32-22.65Q195.02-22.65 192.97-21.03 190.92-19.4 189.47-17.2L189.47-17.2 189.47 0ZM231.51 11.6L231.51 11.6Q229.21 11.6 227.03 11.05 224.86 10.5 223.16 9.4L223.16 9.4 224.81 5.5Q226.01 6.45 227.61 7.08 229.21 7.7 231.51 7.7L231.51 7.7Q235.06 7.7 237.08 5.83 239.11 3.95 239.11-0.15L239.11-0.15 239.11-3.35Q238.11-2.15 236.23-1.07 234.36 0 231.76 0L231.76 0Q228.81 0 226.16-1.53 223.51-3.05 221.86-6 220.21-8.95 220.21-13.1L220.21-13.1Q220.21-17 221.83-20.05 223.46-23.1 226.21-24.85 228.96-26.6 232.26-26.6L232.26-26.6Q234.46-26.6 236.26-25.85 238.06-25.1 239.36-24L239.36-24 239.36-26 243.46-26 243.46-0.6Q243.46 3.7 241.96 6.4 240.46 9.1 237.78 10.35 235.11 11.6 231.51 11.6ZM232.76-4L232.76-4Q234.76-4 236.36-4.9 237.96-5.8 238.96-7L238.96-7 238.96-20.6Q237.86-21.4 236.31-22.05 234.76-22.7 232.71-22.7L232.71-22.7Q230.66-22.7 228.86-21.6 227.06-20.5 225.93-18.43 224.81-16.35 224.81-13.35L224.81-13.35Q224.81-10.5 225.93-8.4 227.06-6.3 228.86-5.15 230.66-4 232.76-4ZM286.43 11L281.93 11 281.93-19.35Q281.93-21.05 281.11-21.78 280.28-22.5 278.98-22.5L278.98-22.5 279.93-26Q284.53-26 285.68-22.35L285.68-22.35Q286.18-23.1 287.31-24.1 288.43-25.1 290.11-25.85 291.78-26.6 293.93-26.6L293.93-26.6Q296.93-26.6 299.56-25.03 302.18-23.45 303.78-20.48 305.38-17.5 305.38-13.25L305.38-13.25Q305.38-9.1 303.78-5.98 302.18-2.85 299.61-1.13 297.03 0.6 294.03 0.6L294.03 0.6Q291.73 0.6 289.73-0.33 287.73-1.25 286.43-2.45L286.43-2.45 286.43 11ZM293.13-3.4L293.13-3.4Q296.53-3.4 298.66-6.08 300.78-8.75 300.78-13.1L300.78-13.1Q300.78-16.1 299.71-18.25 298.63-20.4 296.86-21.55 295.08-22.7 292.93-22.7L292.93-22.7Q290.78-22.7 289.06-21.63 287.33-20.55 286.43-19.3L286.43-19.3 286.43-6.5Q287.73-5.15 289.43-4.28 291.13-3.4 293.13-3.4ZM326.92 0.6L326.92 0.6Q324.62 0.6 322.77-0.28 320.92-1.15 319.84-3.1 318.77-5.05 318.77-8.15L318.77-8.15 318.77-37 323.27-37 323.27-8.6Q323.27-5.9 324.39-4.6 325.52-3.3 327.52-3.3L327.52-3.3Q328.47-3.3 329.39-3.53 330.32-3.75 330.97-4.05L330.97-4.05 332.07-0.4Q331.17 0 329.84 0.3 328.52 0.6 326.92 0.6ZM352.91 0.6L352.91 0.6Q349.66 0.6 347.01-1.05 344.36-2.7 342.78-5.73 341.21-8.75 341.21-12.85L341.21-12.85Q341.21-16.75 342.78-19.85 344.36-22.95 347.13-24.78 349.91-26.6 353.51-26.6L353.51-26.6Q355.76-26.6 357.58-25.83 359.41-25.05 360.76-23.9L360.76-23.9 360.76-26 364.86-26 364.86-6.3Q364.86-4.4 365.78-3.83 366.71-3.25 367.81-3.25L367.81-3.25 366.86 0.25Q362.06 0.25 361.06-3.65L361.06-3.65Q359.91-2.05 357.93-0.73 355.96 0.6 352.91 0.6ZM353.91-3.4L353.91-3.4Q355.81-3.4 357.51-4.33 359.21-5.25 360.36-6.65L360.36-6.65 360.36-20.6Q359.01-21.55 357.38-22.13 355.76-22.7 353.96-22.7L353.96-22.7Q351.56-22.7 349.73-21.48 347.91-20.25 346.86-18.07 345.81-15.9 345.81-13L345.81-13Q345.81-10.2 346.86-8.03 347.91-5.85 349.76-4.63 351.61-3.4 353.91-3.4ZM390.29 0.6L390.29 0.6Q386.54 0.6 384.37-1.88 382.19-4.35 382.19-8.95L382.19-8.95 382.19-21.15 377.69-21.15 377.69-25.05 382.29-25.05 383.24-33.25 386.69-33.25 386.69-25.05 393.89-25.05 393.89-21.15 386.69-21.15 386.69-8.6Q386.69-5.7 387.92-4.55 389.14-3.4 390.84-3.4L390.84-3.4Q392.09-3.4 393.22-3.8 394.34-4.2 395.29-4.75L395.29-4.75 396.54-1.15Q395.54-0.55 393.84 0.03 392.14 0.6 390.29 0.6ZM413.43 0L408.93 0 408.93-21.15 404.93-21.15 404.93-25.05 408.93-25.05 408.93-28.1Q408.93-32.5 411.38-35.05 413.83-37.6 417.78-37.6L417.78-37.6Q419.83-37.6 421.38-37.13 422.93-36.65 424.33-35.95L424.33-35.95 422.98-32.15Q421.93-32.7 420.73-33.15 419.53-33.6 418.08-33.6L418.08-33.6Q415.98-33.6 414.7-32.27 413.43-30.95 413.43-28.4L413.43-28.4 413.43-25.05 421.13-25.05 421.13-21.15 413.43-21.15 413.43 0ZM443.42 0.6L443.42 0.6Q439.72 0.6 436.77-1.13 433.82-2.85 432.14-5.93 430.47-9 430.47-13L430.47-13Q430.47-17.2 432.17-20.25 433.87-23.3 436.82-24.95 439.77-26.6 443.42-26.6L443.42-26.6Q447.07-26.6 449.99-24.95 452.92-23.3 454.64-20.28 456.37-17.25 456.37-13.1L456.37-13.1Q456.37-8.95 454.67-5.88 452.97-2.8 450.04-1.1 447.12 0.6 443.42 0.6ZM443.42-3.4L443.42-3.4Q447.37-3.4 449.57-6.08 451.77-8.75 451.77-13L451.77-13Q451.77-15.6 450.67-17.78 449.57-19.95 447.69-21.28 445.82-22.6 443.42-22.6L443.42-22.6Q439.47-22.6 437.27-20 435.07-17.4 435.07-13.1L435.07-13.1Q435.07-10.5 436.17-8.28 437.27-6.05 439.14-4.73 441.02-3.4 443.42-3.4ZM474.25 0L469.75 0 469.75-26 474.1-26 474.1-20.35Q474.75-22 475.85-23.43 476.95-24.85 478.6-25.73 480.25-26.6 482.45-26.6L482.45-26.6Q483.2-26.6 483.95-26.53 484.7-26.45 485.2-26.3L485.2-26.3 483.85-21.65Q482.9-22.05 481.6-22.05L481.6-22.05Q479.75-22.05 478.08-21 476.4-19.95 475.33-17.75 474.25-15.55 474.25-12.15L474.25-12.15 474.25 0ZM501.59 0L497.09 0 497.09-26 501.44-26 501.44-21.65Q502.84-23.75 504.99-25.18 507.14-26.6 509.89-26.6L509.89-26.6Q512.99-26.6 514.96-25.1 516.94-23.6 517.74-21.1L517.74-21.1Q519.29-23.4 521.41-25 523.54-26.6 526.69-26.6L526.69-26.6Q530.94-26.6 533.01-23.93 535.09-21.25 535.09-16.95L535.09-16.95 535.09 0 530.59 0 530.59-16.6Q530.59-19.3 529.34-20.98 528.09-22.65 525.89-22.65L525.89-22.65Q523.64-22.65 521.71-20.98 519.79-19.3 518.34-17.05L518.34-17.05 518.34 0 513.84 0 513.84-16.6Q513.84-19.3 512.59-20.98 511.34-22.65 509.14-22.65L509.14-22.65Q506.94-22.65 504.99-21.03 503.04-19.4 501.59-17.2L501.59-17.2 501.59 0Z" opacity="1" transform="matrix(1,0,0,1,0,0)" fill="#aab7c0" class="slogan-text-1" data-fill-palette-color="secondary" id="text-1"></path></svg></g></svg></g></svg></g></svg></g><g transform="matrix(1,0,0,1,51.83240162227738,0)"><svg viewBox="0 0 88.33519675544524 70.12833335473171" height="70.12833335473171" width="88.33519675544524"><g><svg xmlns="http://www.w3.org/2000/svg" xmlns:xlink="http://www.w3.org/1999/xlink" version="1.1" x="0" y="0" viewBox="5.249 17.412000000000003 91.93225749980581 72.98400000000001" enable-background="new 0 0 100 100" xml:space="preserve" height="70.12833335473171" width="88.33519675544524" class="icon-icon-0" data-fill-palette-color="accent" id="icon-0"><g fill="#4a596d" data-fill-palette-color="accent"><path fill="#4a596d" d="M96.863 81.328l-0.287-0.643L88.728 61.56c-0.94-1.92-1.532-3.4-3.921-3.4h-7.911v-2.773c2.653-1.664 4.423-4.606 4.423-7.971 0-3.362-1.77-6.304-4.423-7.969V22.539c0-2.828-2.304-5.127-5.135-5.127H10.385c-2.832 0-5.136 2.299-5.136 5.127v42.789c0 2.829 2.304 5.129 5.136 5.129h46.902v19.939h29.24l8.513-4.264C96.863 85.316 97.683 83.153 96.863 81.328zM74.493 38.373c-0.823-0.235-1.689-0.369-2.588-0.369-5.196 0-9.411 4.214-9.411 9.411 0 5.201 4.215 9.413 9.411 9.413 0.898 0 1.764-0.134 2.588-0.369v1.7H61.43l-10.288-5.84-3.983-9.653c-0.573-1.687-2.279-2.676-3.985-2.42l-7.637-13.43c-0.327-0.578-1.061-0.778-1.639-0.451-0.577 0.327-0.779 1.062-0.451 1.639l7.469 13.133c-1.246 0.912-1.835 2.553-1.311 4.088l3.23 10.625 12.239 12.202H10.385c-1.507 0-2.732-1.223-2.732-2.726V22.539c0-1.501 1.225-2.723 2.732-2.723h61.377c1.506 0 2.731 1.222 2.731 2.723V38.373z" data-fill-palette-color="accent"></path><g fill="#4a596d" data-fill-palette-color="accent"><path fill="#4a596d" d="M29.608 42.853H14.338c-0.664 0-1.202-0.538-1.202-1.202V26.337c0-0.664 0.538-1.202 1.202-1.202h15.271c0.664 0 1.202 0.538 1.202 1.202v15.314C30.81 42.316 30.272 42.853 29.608 42.853z" data-fill-palette-color="accent"></path></g><g fill="#4a596d" data-fill-palette-color="accent"><path fill="#4a596d" d="M35.758 49.123H14.338c-0.943 0-1.706-0.764-1.706-1.707s0.764-1.707 1.706-1.707h21.421c0.943 0 1.706 0.764 1.706 1.707S36.701 49.123 35.758 49.123z" data-fill-palette-color="accent"></path></g><g fill="#4a596d" data-fill-palette-color="accent"><path fill="#4a596d" d="M25.223 56.428H14.338c-0.943 0-1.707-0.764-1.707-1.707 0-0.943 0.764-1.707 1.707-1.707h10.886c0.943 0 1.707 0.764 1.707 1.707C26.93 55.664 26.166 56.428 25.223 56.428z" data-fill-palette-color="accent"></path></g></g></svg></g></svg></g><g></g></svg></g></svg></g></svg></g></svg></g><defs></defs></svg><rect width="320" height="360" fill="none" stroke="none" visibility="hidden"></rect></g></svg></g></svg>